#!OML:ASF H:\Not Pregnant\Project 1\Capture day 1\Session 1\non-pregnant.ASF
:FULLY-SPECIFIED
:DEGREES
277
root 5.23628 20.383 14.7988 -167.156 21.6303 -174.122
lowerback -1.44361 2.43616 6.72869
upperback -8.20716 4.04643 -0.483487
thorax -7.36208 1.79153 -4.48307
lowerneck 19.6858 -12.6049 -31.7768
upperneck -0.727666 -22.6756 38.3288
head 5.61355 -12.7246 18.4923
rclavicle -4.1546e-014 1.98785e-015
rhumerus -35.2233 -5.89611 -85.7482
rradius 41.8153
rwrist 14.5773
rhand -14.5247 -0.466337
rfingers 7.12502
rthumb 11.6232 -30.124
lclavicle -4.1546e-014 1.98785e-015
lhumerus -48.6049 -0.914215 84.0306
lradius 31.3918
lwrist 32.8176
lhand -17.4027 -11.6724
lfingers 7.12502
lthumb 8.84678 18.1222
rfemur -23.1856 9.30863 33.0287
rtibia 30.4695
rfoot -15.9908 8.23145
rtoes -5.53944
lfemur -35.5016 4.03523 -11.6619
ltibia 74.5982
lfoot -8.47165 -5.96252
ltoes -27.0572
278
root 5.22767 20.3896 14.7605 -167.094 22.2279 -174.048
lowerback -1.35901 2.49731 6.90684
upperback -8.20438 4.13098 -0.535568
thorax -7.38576 1.81577 -4.6448
lowerneck 19.6782 -12.666 -31.6499
upperneck -0.783148 -22.7232 38.3137
head 5.59596 -12.7468 18.4415
rclavicle -1.39149e-014 1.82882e-014
rhumerus -34.9609 -5.83228 -85.878
rradius 41.5069
rwrist 14.6522
rhand -14.4215 -0.517496
rfingers 7.12502
rthumb 11.7227 -30.1695
lclavicle -1.39149e-014 1.82882e-014
lhumerus -48.4254 -0.666165 83.7784
lradius 31.3729
lwrist 32.9081
lhand -17.4538 -11.5871
lfingers 7.12502
lthumb 8.7974 18.2095
rfemur -22.9004 9.52847 32.9719
rtibia 30.222
rfoot -16.0391 8.6339
rtoes -5.40878
lfemur -35.7909 3.07965 -11.39
ltibia 73.7045
lfoot -9.15419 -5.30431
ltoes -27.5532
279
root 5.21879 20.395 14.7219 -167.021 22.8395 -173.976
lowerback -1.28311 2.55448 7.08187
upperback -8.20211 4.21016 -0.584958
thorax -7.40544 1.83792 -4.80142
lowerneck 19.6902 -12.7086 -31.5568
upperneck -0.863131 -22.7555 38.3263
head 5.57217 -12.7663 18.4182
rclavicle -9.98893e-015 4.77083e-015
rhumerus -34.6933 -5.75765 -86.0078
rradius 41.1477
rwrist 14.7465
rhand -14.2876 -0.52682
rfingers 7.12502
rthumb 11.8518 -30.1714
lclavicle -9.98893e-015 4.77083e-015
lhumerus -48.2442 -0.408392 83.5366
lradius 31.329
lwrist 32.9976
lhand -17.5392 -11.5183
lfingers 7.12502
lthumb 8.71503 18.2817
rfemur -22.6483 9.74285 32.907
rtibia 30.0136
rfoot -16.108 9.05119
rtoes -5.27436
lfemur -36.0575 2.07132 -11.1013
ltibia 72.6969
lfoot -9.81215 -4.63956
ltoes -28.1878
280
root 5.20984 20.3995 14.6829 -166.933 23.469 -173.905
lowerback -1.21879 2.60775 7.24847
upperback -8.20235 4.28429 -0.628159
thorax -7.4222 1.8587 -4.94616
lowerneck 19.7297 -12.7325 -31.5073
upperneck -0.968465 -22.7773 38.3659
head 5.54385 -12.7866 18.4231
rclavicle -1.37161e-014 -1.03368e-014
rhumerus -34.4269 -5.66472 -86.137
rradius 40.7476
rwrist 14.8603
rhand -14.1223 -0.512026
rfingers 7.12502
rthumb 12.0112 -30.1474
lclavicle -1.37161e-014 -1.03368e-014
lhumerus -48.0722 -0.143834 83.3162
lradius 31.2636
lwrist 33.0961
lhand -17.6612 -11.4802
lfingers 7.12502
lthumb 8.59732 18.3247
rfemur -22.4297 9.95665 32.8349
rtibia 29.843
rfoot -16.1973 9.48256
rtoes -5.14667
lfemur -36.3096 1.01705 -10.7887
ltibia 71.5902
lfoot -10.4606 -3.97727
ltoes -28.8355
281
root 5.20096 20.4034 14.6429 -166.827 24.121 -173.838
lowerback -1.16912 2.65821 7.39864
upperback -8.2091 4.35519 -0.663106
thorax -7.43904 1.87967 -5.07241
lowerneck 19.8242 -12.7299 -31.537
upperneck -1.10987 -22.7929 38.453
head 5.51445 -12.8147 18.476
rclavicle 4.07012e-014 1.43125e-014
rhumerus -34.1707 -5.5466 -86.2622
rradius 40.3177
rwrist 14.9935
rhand -13.9378 -0.491848
rfingers 7.12502
rthumb 12.1891 -30.1167
lclavicle 4.07012e-014 1.43125e-014
lhumerus -47.914 0.122172 83.1223
lradius 31.1761
lwrist 33.1875
lhand -17.8187 -11.4727
lfingers 7.12502
lthumb 8.44528 18.3384
rfemur -22.2449 10.176 32.7509
rtibia 29.704
rfoot -16.3023 9.92942
rtoes -4.9876
lfemur -36.5551 -0.0826158 -10.45
ltibia 70.3949
lfoot -11.0897 -3.33747
ltoes -29.3438
282
root 5.19236 20.4067 14.6021 -166.702 24.7959 -173.773
lowerback -1.14 2.70626 7.53356
upperback -8.21892 4.42217 -0.691049
thorax -7.44879 1.90065 -5.18146
lowerneck 19.9572 -12.7053 -31.6409
upperneck -1.2788 -22.8055 38.5873
head 5.48998 -12.8502 18.5738
rclavicle 4.18939e-014 5.56597e-015
rhumerus -33.9199 -5.40554 -86.388
rradius 39.8649
rwrist 15.1464
rhand -13.7386 -0.48018
rfingers 7.12502
rthumb 12.3811 -30.0935
lclavicle 4.18939e-014 5.56597e-015
lhumerus -47.7663 0.379029 82.9625
lradius 31.0772
lwrist 33.2967
lhand -18.0192 -11.5005
lfingers 7.12502
lthumb 8.2518 18.3184
rfemur -22.0923 10.4092 32.6563
rtibia 29.5889
rfoot -16.4183 10.3877
rtoes -4.80055
lfemur -36.7996 -1.21827 -10.0792
ltibia 69.1216
lfoot -11.6918 -2.74833
ltoes -29.6674
283
root 5.18428 20.41 14.5599 -166.554 25.4967 -173.712
lowerback -1.13696 2.75368 7.64904
upperback -8.23444 4.48738 -0.713419
thorax -7.45103 1.92308 -5.27223
lowerneck 20.0872 -12.6708 -31.76
upperneck -1.44864 -22.8083 38.7295
head 5.46591 -12.8815 18.6819
rclavicle -2.127e-014 -1.39149e-014
rhumerus -33.6833 -5.2429 -86.5142
rradius 39.3989
rwrist 15.3184
rhand -13.5257 -0.487526
rfingers 7.12502
rthumb 12.5864 -30.0884
lclavicle -2.127e-014 -1.39149e-014
lhumerus -47.6373 0.614676 82.841
lradius 30.9773
lwrist 33.4195
lhand -18.2595 -11.5653
lfingers 7.12502
lthumb 8.01987 18.2626
rfemur -21.9685 10.6611 32.547
rtibia 29.4884
rfoot -16.5407 10.8566
rtoes -4.59366
lfemur -37.0403 -2.39364 -9.67882
ltibia 67.7747
lfoot -12.2746 -2.18086
ltoes -29.9863
284
root 5.17687 20.4133 14.5167 -166.376 26.2218 -173.649
lowerback -1.16081 2.80255 7.74788
upperback -8.26067 4.55454 -0.729525
thorax -7.45028 1.9486 -5.34584
lowerneck 20.2186 -12.6279 -31.8877
upperneck -1.61629 -22.8025 38.8748
head 5.44086 -12.9091 18.7969
rclavicle -6.9674e-014 -3.57812e-015
rhumerus -33.4719 -5.06233 -86.6367
rradius 38.9263
rwrist 15.5111
rhand -13.3115 -0.499831
rfingers 7.12502
rthumb 12.7929 -30.0879
lclavicle -6.9674e-014 -3.57812e-015
lhumerus -47.5264 0.822167 82.7584
lradius 30.8799
lwrist 33.5467
lhand -18.5355 -11.6526
lfingers 7.12502
lthumb 7.75345 18.1853
rfemur -21.8762 10.9378 32.4277
rtibia 29.3951
rfoot -16.6615 11.3338
rtoes -4.35407
lfemur -37.292 -3.6015 -9.23564
ltibia 66.3658
lfoot -12.8145 -1.68022
ltoes -30.2071
285
root 5.1702 20.4169 14.4726 -166.167 26.9705 -173.583
lowerback -1.20963 2.84613 7.82536
upperback -8.2937 4.61415 -0.733952
thorax -7.44548 1.97298 -5.39349
lowerneck 20.299 -12.5868 -31.9912
upperneck -1.75783 -22.7847 38.9933
head 5.41823 -12.9237 18.8913
rclavicle -6.30644e-014 -1.15295e-014
rhumerus -33.2715 -4.85117 -86.761
rradius 38.4461
rwrist 15.731
rhand -13.0944 -0.512879
rfingers 7.12502
rthumb 13.0022 -30.0877
lclavicle -6.30644e-014 -1.15295e-014
lhumerus -47.4342 1.02136 82.7086
lradius 30.7956
lwrist 33.6688
lhand -18.8336 -11.743
lfingers 7.12502
lthumb 7.46578 18.1052
rfemur -21.8136 11.2382 32.2989
rtibia 29.3003
rfoot -16.7685 11.8228
rtoes -4.07238
lfemur -37.5595 -4.84075 -8.74361
ltibia 64.9029
lfoot -13.3299 -1.22993
ltoes -30.4646
286
root 5.16433 20.4208 14.4276 -165.925 27.7442 -173.51
lowerback -1.28381 2.89428 7.89452
upperback -8.33277 4.67883 -0.737384
thorax -7.43228 2.00132 -5.43397
lowerneck 20.3303 -12.5591 -32.0377
upperneck -1.87708 -22.7595 39.0799
head 5.39242 -12.9261 18.9541
rclavicle 1.27719e-014 -1.39149e-014
rhumerus -33.0842 -4.65333 -86.8811
rradius 37.957
rwrist 15.9929
rhand -12.8725 -0.541878
rfingers 7.12502
rthumb 13.2161 -30.1029
lclavicle 1.27719e-014 -1.39149e-014
lhumerus -47.3455 1.17976 82.691
lradius 30.7192
lwrist 33.7789
lhand -19.1345 -11.8107
lfingers 7.12502
lthumb 7.1753 18.0477
rfemur -21.7739 11.5547 32.1655
rtibia 29.1984
rfoot -16.8609 12.3311
rtoes -3.75609
lfemur -37.8452 -6.10534 -8.1941
ltibia 63.3965
lfoot -13.823 -0.865142
ltoes -30.6805
